<?xml version="1.0" encoding="UTF-8" standalone="no"?>
<svg
   xmlns:dc="http://purl.org/dc/elements/1.1/"
   xmlns:cc="http://creativecommons.org/ns#"
   xmlns:rdf="http://www.w3.org/1999/02/22-rdf-syntax-ns#"
   xmlns:svg="http://www.w3.org/2000/svg"
   xmlns="http://www.w3.org/2000/svg"
   xmlns:sodipodi="http://sodipodi.sourceforge.net/DTD/sodipodi-0.dtd"
   xmlns:inkscape="http://www.inkscape.org/namespaces/inkscape"
   viewBox="0 0 373.11 313.2"
   version="1.1"
   id="svg14"
   sodipodi:docname="logo.svg"
   inkscape:version="0.92.3 (unknown)">
  <metadata
     id="metadata20">
    <rdf:RDF>
      <cc:Work
         rdf:about="">
        <dc:format>image/svg+xml</dc:format>
        <dc:type
           rdf:resource="http://purl.org/dc/dcmitype/StillImage" />
      </cc:Work>
    </rdf:RDF>
  </metadata>
  <defs
     id="defs18" />
  <sodipodi:namedview
     pagecolor="#ffffff"
     bordercolor="#666666"
     borderopacity="1"
     objecttolerance="10"
     gridtolerance="10"
     guidetolerance="10"
     inkscape:pageopacity="0"
     inkscape:pageshadow="2"
     inkscape:window-width="1366"
     inkscape:window-height="715"
     id="namedview16"
     showgrid="false"
     inkscape:zoom="0.7535121"
     inkscape:cx="443.35246"
     inkscape:cy="156.60001"
     inkscape:window-x="0"
     inkscape:window-y="0"
     inkscape:window-maximized="1"
     inkscape:current-layer="svg14" />
  <title
     id="title2">logo</title>
  <g
     fill="#fff"
     id="g10" />
  <path
     d="m 348.17746,190.60542 a 7.57,7.57 0 1 1 0,15.14 7.57,7.57 0 1 1 0,-15.14 z m -0.09,1.52 a 6.025168,6.025168 0 0 0 0.09,12.05 5.78,5.78 0 0 0 5.75,-6 5.87,5.87 0 0 0 -5.8,-6.07 z m -1.15,9.94 h -1.75 v -7.54 a 20.47,20.47 0 0 1 2.9,-0.23 4,4 0 0 1 2.58,0.6 1.9,1.9 0 0 1 0.78,1.61 2,2 0 0 1 -1.56,1.79 v 0.09 c 0.74,0.23 1.1,0.83 1.33,1.84 a 6.7,6.7 0 0 0 0.55,1.84 h -1.84 a 6,6 0 0 1 -0.6,-1.84 c -0.14,-0.78 -0.6,-1.15 -1.56,-1.15 h -0.83 z m 0,-4.23 h 0.83 c 1,0 1.75,-0.32 1.75,-1.1 0,-0.78 -0.51,-1.15 -1.61,-1.15 a 4.17,4.17 0 0 0 -1,0.09 z"
     id="path12"
     style="fill:#0000ff"
     inkscape:connector-curvature="0" />
  <text
     xml:space="preserve"
     style="font-style:normal;font-variant:normal;font-weight:normal;font-stretch:normal;font-size:96px;line-height:1.25;font-family:Symbola;-inkscape-font-specification:Symbola;letter-spacing:0px;word-spacing:0px;fill:#000000;fill-opacity:1;stroke:none"
     x="35.832207"
     y="184.4695"
     id="text24"><tspan
       sodipodi:role="line"
       id="tspan22"
       x="35.832207"
       y="184.4695"
       style="font-style:normal;font-variant:normal;font-weight:normal;font-stretch:normal;font-family:'Abyssinica SIL';-inkscape-font-specification:'Abyssinica SIL';fill:#0000ff">Ailsonc</tspan></text>
</svg>
